<svg xmlns="http://www.w3.org/2000/svg" viewBox="0 0 163.5 162.8" xml:space="preserve"><path d="M143.2 142.6V141c0-21.9 0-43.8.1-65.7 0-.9.1-1.8.4-2.7 1.7-5.2 7.4-8 12.8-6.3 3.8 1.2 6.4 4.4 6.7 7.7.3 2.9.3 5.9.3 8.8v69.9c0 5.7-4.2 10.1-10 10.1-25.4.1-50.8 0-76.2 0-2.7 0-5.1-1.1-6.9-3.1-2.9-3.3-3.4-7.2-1.7-11.2 1.7-3.9 5-5.9 9.3-5.9zM20.2 20v67c0 .9-.2 1.9-.4 2.8-.8 3.9-5.7 7.8-11.1 7C3.6 96 0 92.2 0 86.9V9.4C0 9 .1 8.5.1 8c.6-4.1 4.6-8 10.2-8 25.2.1 50.3.1 75.5.1.8 0 1.5 0 2.2.2 5.2 1.1 8.5 6 7.5 11.7-.8 4.3-4.8 8.2-9.7 8.1C64.6 20 43.3 20 22 20zm62 41.6c11.2 0 20.1 8.8 20.2 19.8.2 11.8-8.9 20.5-20 20.6-11.6.1-20.1-9-20.5-19.6-.3-11.7 9.3-20.9 20.3-20.8" style="fill:#00b4cc"/></svg>
